<svg width="172" height="135" viewBox="0 0 172 135" fill="none" xmlns="http://www.w3.org/2000/svg">
<path d="M46.2178 2H157.504C164.33 2 169.872 7.54119 169.872 14.3672V87.395C169.872 94.2298 164.33 99.7622 157.504 99.7622H46.2178C39.3918 99.771 33.8506 94.2298 33.8506 87.395V14.3672C33.8506 7.54119 39.3918 2 46.2178 2Z" stroke="#D4E2DB" stroke-width="2.2873" stroke-linecap="round" stroke-linejoin="round"/>
<path d="M34.7629 10.4757L91.1311 50.7943C97.4649 55.3238 105.977 55.333 112.32 50.8128L168.952 10.4213M139.153 117.713H33.7262C23.656 117.713 15.499 109.556 15.499 99.4858V32.3277" stroke="#D4E2DB" stroke-width="2.2873" stroke-linecap="round" stroke-linejoin="round"/>
<path d="M125.654 132.998H20.2272C10.1565 132.998 2 124.841 2 114.771V47.612" stroke="#D4E2DB" stroke-width="2.2873" stroke-linecap="round" stroke-linejoin="round"/>
<path fill-rule="evenodd" clip-rule="evenodd" d="M101.988 80.3106C84.2808 80.3106 69.9243 65.9541 69.9243 48.2473C69.9243 30.5405 84.2808 16.184 101.988 16.184C119.694 16.184 134.051 30.5405 134.051 48.2473C134.051 65.9541 119.694 80.3106 101.988 80.3106Z" fill="#3FB37B"/>
<path d="M111.198 43.8581L99.704 55.5633L92.8037 48.5412" stroke="white" stroke-width="4.57459" stroke-linecap="round" stroke-linejoin="round"/>
</svg>
