<svg width="52" height="52" viewBox="0 0 52 52" fill="none" xmlns="http://www.w3.org/2000/svg">
<g clip-path="url(#clip0_2_126)">
<path d="M26 52C32.8956 52 39.5088 49.2607 44.3848 44.3848C49.2607 39.5088 52 32.8956 52 26C52 19.1044 49.2607 12.4912 44.3848 7.61522C39.5088 2.73928 32.8956 0 26 0C19.1044 0 12.4912 2.73928 7.61522 7.61522C2.73928 12.4912 0 19.1044 0 26C0 32.8956 2.73928 39.5088 7.61522 44.3848C12.4912 49.2607 19.1044 52 26 52ZM17.2453 16.7883C18.0477 14.5234 20.2008 13 22.6078 13H28.5289C32.0734 13 34.9375 15.8742 34.9375 19.4086C34.9375 21.7039 33.7086 23.8266 31.718 24.9742L28.4375 26.8531C28.4172 28.1734 27.3305 29.25 26 29.25C24.6492 29.25 23.5625 28.1633 23.5625 26.8125V25.4414C23.5625 24.568 24.0297 23.7656 24.7914 23.3289L29.2906 20.7492C29.768 20.475 30.0625 19.9672 30.0625 19.4187C30.0625 18.5656 29.3719 17.8852 28.5289 17.8852H22.6078C22.2625 17.8852 21.9578 18.0984 21.8461 18.4234L21.8055 18.5453C21.3586 19.8148 19.957 20.475 18.6977 20.0281C17.4383 19.5812 16.768 18.1797 17.2148 16.9203L17.2555 16.7984L17.2453 16.7883ZM22.75 35.75C22.75 34.888 23.0924 34.0614 23.7019 33.4519C24.3114 32.8424 25.138 32.5 26 32.5C26.862 32.5 27.6886 32.8424 28.2981 33.4519C28.9076 34.0614 29.25 34.888 29.25 35.75C29.25 36.612 28.9076 37.4386 28.2981 38.0481C27.6886 38.6576 26.862 39 26 39C25.138 39 24.3114 38.6576 23.7019 38.0481C23.0924 37.4386 22.75 36.612 22.75 35.75Z" fill="#72BB63"/>
</g>
<defs>
<clipPath id="clip0_2_126">
<rect width="52" height="52" fill="white"/>
</clipPath>
</defs>
</svg>
