<svg width="52" height="52" viewBox="0 0 52 52" fill="none" xmlns="http://www.w3.org/2000/svg">
<path d="M4.83437 30.5092L23.1867 47.6428C23.9484 48.3537 24.9539 48.7498 26 48.7498C27.0461 48.7498 28.0516 48.3537 28.8133 47.6428L47.1656 30.5092C50.2531 27.635 52 23.6029 52 19.3881V18.799C52 11.6998 46.8711 5.64669 39.8734 4.47872C35.2422 3.70684 30.5297 5.22012 27.2188 8.53106L26 9.74981L24.7812 8.53106C21.4703 5.22012 16.7578 3.70684 12.1266 4.47872C5.12891 5.64669 0 11.6998 0 18.799V19.3881C0 23.6029 1.74687 27.635 4.83437 30.5092Z" fill="#72BB63"/>
</svg>
