<svg width="52" height="52" viewBox="0 0 52 52" fill="none" xmlns="http://www.w3.org/2000/svg">
<g clip-path="url(#clip0_2_91)">
<path d="M21.2969 0.345313C22.9016 -0.457031 24.8516 0.192969 25.6539 1.79766L28.193 6.87578L32.4992 7.73906C34.4797 8.13516 36.3383 8.98828 37.9328 10.2273L50.7398 20.1906C52.1617 21.2977 52.4156 23.3391 51.3086 24.7508C50.2016 26.1625 48.1601 26.4266 46.7484 25.3195L39.4258 19.6219L32.1641 22.8516L35.5258 25.6547C37.882 27.6148 38.9281 30.7328 38.2375 33.7188L36.4703 41.3563C36.2469 42.3109 35.6375 43.0625 34.8352 43.4891L43.6203 46.8508C44.0875 47.0336 44.575 47.1148 45.0727 47.1148H47.9367C49.2875 47.1148 50.3742 48.2016 50.3742 49.5523C50.3742 50.9031 49.2875 51.9898 47.9367 51.9898H45.0727C43.9758 51.9898 42.8992 51.7867 41.8734 51.4008L6.10312 37.7102C4.93516 37.2633 3.86875 36.5727 2.975 35.6789L0.710156 33.4141C-0.244531 32.4594 -0.244531 30.9156 0.710156 29.9711C1.66484 29.0266 3.20859 29.0164 4.15312 29.9711L6.42812 32.2461C6.83437 32.6523 7.31172 32.9672 7.85 33.1703L10.125 34.0438C10.0437 33.8813 9.97266 33.7188 9.91172 33.5461C9.34297 31.8398 10.2672 30.0016 11.9633 29.4328L19.4992 26.9039V21.5008C19.4992 19.043 20.8906 16.7883 23.0945 15.6914L27.6852 13.3961L26.9234 13.2437C24.9531 12.8477 23.2773 11.568 22.3836 9.78047L19.8445 4.70234C19.0422 3.09766 19.6922 1.14766 21.2969 0.345313ZM14.1164 35.557L30.2648 41.7422C30.0516 41.1734 30.0008 40.5336 30.1531 39.8937L31.9203 32.2563C32.0625 31.657 31.8492 31.0375 31.382 30.6414L26.0195 26.1727V28.082C26.0195 30.1844 24.6789 32.043 22.6883 32.7031L14.1164 35.557ZM43.8742 0C45.1671 0 46.4071 0.513615 47.3214 1.42785C48.2356 2.34209 48.7492 3.58207 48.7492 4.875C48.7492 6.16793 48.2356 7.40791 47.3214 8.32215C46.4071 9.23639 45.1671 9.75 43.8742 9.75C42.5813 9.75 41.3413 9.23639 40.4271 8.32215C39.5128 7.40791 38.9992 6.16793 38.9992 4.875C38.9992 3.58207 39.5128 2.34209 40.4271 1.42785C41.3413 0.513615 42.5813 0 43.8742 0Z" fill="#72BB63"/>
</g>
<defs>
<clipPath id="clip0_2_91">
<rect width="52" height="52" fill="white"/>
</clipPath>
</defs>
</svg>
