<svg width="52" height="52" viewBox="0 0 52 52" fill="none" xmlns="http://www.w3.org/2000/svg">
<g clip-path="url(#clip0_2_100)">
<path d="M19.5 10.6438C19.5 9.70938 18.9109 8.88672 18.1594 8.32812C16.9813 7.44453 16.25 6.22578 16.25 4.875C16.25 2.18359 19.1648 0 22.75 0C26.3352 0 29.25 2.18359 29.25 4.875C29.25 6.22578 28.5188 7.44453 27.3406 8.32812C26.5891 8.88672 26 9.70938 26 10.6438C26 11.9438 27.0563 13 28.3563 13H34.125C36.8164 13 39 15.1836 39 17.875V23.6438C39 24.9438 40.0563 26 41.3563 26C42.2906 26 43.1133 25.4109 43.6719 24.6594C44.5555 23.4813 45.7742 22.75 47.125 22.75C49.8164 22.75 52 25.6648 52 29.25C52 32.8352 49.8164 35.75 47.125 35.75C45.7742 35.75 44.5555 35.0188 43.6719 33.8406C43.1133 33.0891 42.2906 32.5 41.3563 32.5C40.0563 32.5 39 33.5563 39 34.8563V47.125C39 49.8164 36.8164 52 34.125 52H28.3563C27.0563 52 26 50.9437 26 49.6437C26 48.7094 26.5891 47.8867 27.3406 47.3281C28.5188 46.4445 29.25 45.2258 29.25 43.875C29.25 41.1836 26.3352 39 22.75 39C19.1648 39 16.25 41.1836 16.25 43.875C16.25 45.2258 16.9813 46.4445 18.1594 47.3281C18.9109 47.8867 19.5 48.7094 19.5 49.6437C19.5 50.9437 18.4438 52 17.1438 52H4.875C2.18359 52 0 49.8164 0 47.125V34.8563C0 33.5563 1.05625 32.5 2.35625 32.5C3.29063 32.5 4.11328 33.0891 4.67188 33.8406C5.55547 35.0188 6.77422 35.75 8.125 35.75C10.8164 35.75 13 32.8352 13 29.25C13 25.6648 10.8164 22.75 8.125 22.75C6.77422 22.75 5.55547 23.4813 4.67188 24.6594C4.11328 25.4109 3.29063 26 2.35625 26C1.05625 26 0 24.9438 0 23.6438V17.875C0 15.1836 2.18359 13 4.875 13H17.1438C18.4438 13 19.5 11.9438 19.5 10.6438Z" fill="#72BB63"/>
</g>
<defs>
<clipPath id="clip0_2_100">
<rect width="52" height="52" fill="white"/>
</clipPath>
</defs>
</svg>
