<svg width="39" height="52" viewBox="0 0 39 52" fill="none" xmlns="http://www.w3.org/2000/svg">
<path d="M27.625 39C28.6 35.7602 30.6211 32.9977 32.6219 30.2453C33.15 29.5242 33.6781 28.8031 34.1859 28.0719C36.1969 25.1773 37.375 21.6734 37.375 17.8852C37.375 8.00313 29.3719 0 19.5 0C9.62813 0 1.625 8.00313 1.625 17.875C1.625 21.6633 2.80313 25.1773 4.81406 28.0617C5.32188 28.793 5.85 29.5141 6.37812 30.2352C8.38906 32.9875 10.4102 35.7602 11.375 38.9898H27.625V39ZM19.5 52C23.9891 52 27.625 48.3641 27.625 43.875V42.25H11.375V43.875C11.375 48.3641 15.0109 52 19.5 52ZM11.375 17.875C11.375 18.7687 10.6438 19.5 9.75 19.5C8.85625 19.5 8.125 18.7687 8.125 17.875C8.125 11.5883 13.2133 6.5 19.5 6.5C20.3937 6.5 21.125 7.23125 21.125 8.125C21.125 9.01875 20.3937 9.75 19.5 9.75C15.0109 9.75 11.375 13.3859 11.375 17.875Z" fill="#72BB63"/>
</svg>
