<svg width="52" height="52" viewBox="0 0 52 52" fill="none" xmlns="http://www.w3.org/2000/svg">
<g clip-path="url(#clip0_2_144)">
<path d="M26 52C32.8956 52 39.5088 49.2607 44.3848 44.3848C49.2607 39.5088 52 32.8956 52 26C52 19.1044 49.2607 12.4912 44.3848 7.61522C39.5088 2.73928 32.8956 0 26 0C19.1044 0 12.4912 2.73928 7.61522 7.61522C2.73928 12.4912 0 19.1044 0 26C0 32.8956 2.73928 39.5088 7.61522 44.3848C12.4912 49.2607 19.1044 52 26 52ZM16.6664 33.0586C18.4844 35.1609 21.5922 37.375 26 37.375C30.4078 37.375 33.5156 35.1609 35.3336 33.0586C35.9227 32.3781 36.9484 32.307 37.6289 32.8961C38.3094 33.4852 38.3805 34.5109 37.7914 35.1914C35.5266 37.7914 31.5961 40.625 26 40.625C20.4039 40.625 16.4734 37.7914 14.2086 35.1914C13.6195 34.5109 13.6906 33.4852 14.3711 32.8961C15.0516 32.307 16.0773 32.3781 16.6664 33.0586ZM22.1 23.2375L22.0797 23.2172C22.0594 23.1969 22.0391 23.1664 22.0086 23.1258C21.9477 23.0445 21.8461 22.9227 21.7242 22.7805C21.4703 22.4961 21.1148 22.1102 20.6883 21.7344C19.7945 20.9422 18.7789 20.3125 17.875 20.3125C16.9711 20.3125 15.9555 20.9422 15.0617 21.7344C14.6352 22.1102 14.2797 22.4961 14.0258 22.7805C13.9039 22.9227 13.8023 23.0445 13.7414 23.1258C13.7109 23.1664 13.6805 23.1969 13.6703 23.2172L13.65 23.2375C13.4367 23.5219 13.0711 23.6336 12.7461 23.5219C12.4211 23.4102 12.1875 23.1055 12.1875 22.75C12.1875 20.932 12.868 19.1344 13.8734 17.7937C14.8688 16.4734 16.3008 15.4375 17.875 15.4375C19.4492 15.4375 20.8812 16.4734 21.8766 17.7937C22.882 19.1344 23.5625 20.932 23.5625 22.75C23.5625 23.0953 23.3391 23.4102 23.0039 23.5219C22.6688 23.6336 22.3031 23.5219 22.1 23.2375ZM38.35 23.2375L38.3297 23.2172C38.3094 23.1969 38.2891 23.1664 38.2586 23.1258C38.1977 23.0445 38.0961 22.9227 37.9742 22.7805C37.7203 22.4961 37.3648 22.1102 36.9383 21.7344C36.0445 20.9422 35.0289 20.3125 34.125 20.3125C33.2211 20.3125 32.2055 20.9422 31.3117 21.7344C30.8852 22.1102 30.5297 22.4961 30.2758 22.7805C30.1539 22.9227 30.0523 23.0445 29.9914 23.1258C29.9609 23.1664 29.9305 23.1969 29.9203 23.2172L29.9 23.2375C29.6867 23.5219 29.3211 23.6336 28.9961 23.5219C28.6711 23.4102 28.4375 23.1055 28.4375 22.75C28.4375 20.932 29.118 19.1344 30.1234 17.7937C31.1188 16.4734 32.5508 15.4375 34.125 15.4375C35.6992 15.4375 37.1312 16.4734 38.1266 17.7937C39.132 19.1344 39.8125 20.932 39.8125 22.75C39.8125 23.0953 39.5891 23.4102 39.2539 23.5219C38.9188 23.6336 38.5531 23.5219 38.35 23.2375Z" fill="#72BB63"/>
</g>
<defs>
<clipPath id="clip0_2_144">
<rect width="52" height="52" fill="white"/>
</clipPath>
</defs>
</svg>
